<?xml version="1.0" encoding="UTF-8"?>
<!DOCTYPE svg PUBLIC "-//W3C//DTD SVG 1.1//EN" "http://www.w3.org/Graphics/SVG/1.1/DTD/svg11.dtd">
<svg version="1.1" xmlns="http://www.w3.org/2000/svg" xmlns:xlink="http://www.w3.org/1999/xlink" x="0" y="0" width="452" height="40" viewBox="0, 0, 452, 40">
  <defs>
    <radialGradient id="Gradient_1" gradientUnits="userSpaceOnUse" cx="434.47" cy="-0.048" r="35.604" gradientTransform="matrix(1, 0, 0, 1, -0.06, 0)">
      <stop offset="0" stop-color="#FFEC5C"/>
      <stop offset="0.249" stop-color="#FFEB2F"/>
      <stop offset="0.477" stop-color="#FFE90D"/>
      <stop offset="0.6" stop-color="#FFE900"/>
      <stop offset="0.687" stop-color="#FEE600"/>
      <stop offset="0.757" stop-color="#FADC00"/>
      <stop offset="0.821" stop-color="#F3CB00"/>
      <stop offset="0.881" stop-color="#EAB300"/>
      <stop offset="0.9" stop-color="#E6AA00"/>
      <stop offset="1" stop-color="#D48F00"/>
    </radialGradient>
    <radialGradient id="Gradient_2" gradientUnits="userSpaceOnUse" cx="408.839" cy="26.012" r="35.384" gradientTransform="matrix(1, 0, 0, 1, -0.06, 0)">
      <stop offset="0" stop-color="#FFEC5C"/>
      <stop offset="0.249" stop-color="#FFEB2F"/>
      <stop offset="0.477" stop-color="#FFE90D"/>
      <stop offset="0.6" stop-color="#FFE900"/>
      <stop offset="0.687" stop-color="#FEE600"/>
      <stop offset="0.757" stop-color="#FADC00"/>
      <stop offset="0.821" stop-color="#F3CB00"/>
      <stop offset="0.881" stop-color="#EAB300"/>
      <stop offset="0.9" stop-color="#E6AA00"/>
      <stop offset="1" stop-color="#D48F00"/>
    </radialGradient>
    <radialGradient id="Gradient_3" gradientUnits="userSpaceOnUse" cx="443.915" cy="35.289" r="35.576" gradientTransform="matrix(1, 0, 0, 1, -0.06, 0)">
      <stop offset="0" stop-color="#FFEC5C"/>
      <stop offset="0.249" stop-color="#FFEB2F"/>
      <stop offset="0.477" stop-color="#FFE90D"/>
      <stop offset="0.6" stop-color="#FFE900"/>
      <stop offset="0.687" stop-color="#FEE600"/>
      <stop offset="0.757" stop-color="#FADC00"/>
      <stop offset="0.821" stop-color="#F3CB00"/>
      <stop offset="0.881" stop-color="#EAB300"/>
      <stop offset="0.9" stop-color="#E6AA00"/>
      <stop offset="1" stop-color="#D48F00"/>
    </radialGradient>
  </defs>
  <g id="BoundingBox"/>
  <g id="Logo">
    <path d="M0.01,11.968 C0.01,7.301 3.556,3.513 8.223,3.513 C10.466,3.513 12.405,4.392 13.739,5.877 L11.466,8.241 C10.526,7.362 9.465,6.877 8.162,6.877 C5.647,6.877 3.889,9.089 3.889,11.877 C3.889,14.696 5.556,16.939 8.284,16.939 C9.678,16.939 10.799,16.454 11.738,15.454 L13.92,17.696 C12.435,19.393 10.496,20.303 7.981,20.303 C3.313,20.303 0.01,16.726 0.01,11.968 z M15.101,11.999 C15.101,7.331 18.738,3.513 23.557,3.513 C28.466,3.513 31.891,7.089 31.891,11.817 C31.891,16.484 28.254,20.303 23.435,20.303 C18.526,20.303 15.101,16.726 15.101,11.999 z M28.072,11.908 C28.072,9.029 26.284,6.816 23.496,6.816 C20.647,6.816 18.92,9.18 18.92,11.908 C18.92,14.787 20.708,16.999 23.496,16.999 C26.345,16.999 28.072,14.635 28.072,11.908 z M42.163,19.999 L39.435,11.18 C38.95,9.574 38.556,7.817 38.556,7.817 L38.496,7.817 C38.496,7.817 38.466,9.574 38.314,11.271 L37.587,19.999 L34.223,19.999 L35.799,3.816 L40.587,3.816 L43.072,11.817 C43.496,13.15 43.921,14.817 43.921,14.817 C43.921,14.817 44.345,13.15 44.739,11.847 L47.194,3.816 L51.891,3.816 L53.467,20 L49.891,20 L49.164,11.332 C49.012,9.574 48.982,7.817 48.982,7.817 L48.921,7.817 C48.921,7.817 48.557,9.574 48.073,11.12 L45.345,20 L42.163,20 z M64.497,19.999 L61.769,11.18 C61.284,9.574 60.89,7.817 60.89,7.817 L60.83,7.817 C60.83,7.817 60.799,9.574 60.648,11.271 L59.921,19.999 L56.557,19.999 L58.133,3.816 L62.921,3.816 L65.406,11.817 C65.83,13.15 66.255,14.817 66.255,14.817 C66.255,14.817 66.679,13.15 67.073,11.847 L69.528,3.816 L74.225,3.816 L75.801,20 L72.225,20 L71.497,11.332 C71.346,9.574 71.316,7.817 71.316,7.817 L71.255,7.817 C71.255,7.817 70.891,9.574 70.406,11.12 L67.679,20 L64.497,20 z M79.678,3.816 L90.104,3.816 L90.104,6.907 L83.194,6.907 L83.194,10.332 L89.134,10.332 L89.134,13.362 L83.194,13.362 L83.194,16.908 L90.194,16.908 L90.194,19.999 L79.678,19.999 L79.678,3.816 z M102.406,19.999 L98.951,14.12 L97.83,14.12 L97.83,19.999 L94.314,19.999 L94.314,3.816 L99.163,3.816 C104.043,3.816 105.891,5.725 105.891,8.998 C105.891,11.089 104.709,12.696 102.618,13.484 L106.588,19.999 L102.406,19.999 z M99.285,6.847 L97.83,6.847 L97.83,11.15 L99.285,11.15 C101.254,11.15 102.255,10.514 102.255,8.998 C102.255,7.422 101.164,6.847 99.285,6.847 z M108.587,17.333 L115.285,6.907 L108.739,6.907 L108.739,3.816 L119.709,3.816 L119.709,6.483 L113.012,16.908 L119.861,16.908 L119.861,19.999 L108.587,19.999 L108.587,17.333 z M129.103,3.816 L134.709,3.816 C137.528,3.816 140.589,4.452 140.589,7.968 C140.589,9.756 139.679,10.938 138.043,11.484 L138.043,11.514 C140.134,11.847 141.407,13.211 141.407,15.332 C141.407,18.605 138.316,19.999 135.285,19.999 L129.103,19.999 L129.103,3.816 z M132.618,10.362 L134.8,10.362 C135.921,10.362 136.922,9.847 136.922,8.544 C136.922,7.21 135.77,6.847 134.649,6.847 L132.618,6.847 L132.618,10.362 z M132.618,16.969 L135.194,16.969 C136.982,16.969 137.74,16.333 137.74,15.09 C137.74,13.817 136.77,13.332 135.194,13.332 L132.618,13.332 L132.618,16.969 z M158.043,13.544 C158.043,17.454 155.407,20.303 151.346,20.303 C147.285,20.303 144.678,17.545 144.678,13.605 L144.678,3.816 L148.194,3.816 L148.194,13.453 C148.194,15.635 149.315,17.029 151.346,17.029 C153.376,17.029 154.528,15.635 154.528,13.453 L154.528,3.816 L158.043,3.816 L158.043,13.544 z M168.164,14.211 C167.103,13.15 164.254,13.696 162.315,11.756 C161.496,10.938 161.102,9.786 161.102,8.574 C161.102,5.756 163.466,3.513 167.315,3.513 C168.739,3.513 170.194,3.877 171.437,4.483 L170.164,7.453 C169.315,6.998 168.194,6.665 167.133,6.665 C165.527,6.665 164.83,7.453 164.83,8.362 C164.83,8.847 164.982,9.21 165.254,9.483 C166.285,10.514 169.255,10.059 171.103,11.908 C171.922,12.726 172.346,13.908 172.346,15.181 C172.346,18.03 170.012,20.303 166.133,20.303 C164.345,20.303 162.496,19.727 161.102,18.848 L162.436,15.787 C163.436,16.484 164.83,17.12 166.315,17.12 C167.921,17.12 168.588,16.302 168.588,15.363 C168.588,14.878 168.436,14.484 168.164,14.211 z M179.164,19.999 L175.588,19.999 L175.588,3.816 L179.164,3.816 L179.164,19.999 z M183.83,3.816 L187.194,3.816 L192.437,11.514 C193.285,12.786 194.043,14.09 194.043,14.09 C194.043,14.09 193.952,12.605 193.952,11.15 L193.952,3.816 L197.225,3.816 L197.225,19.999 L194.104,19.999 L188.618,11.938 C187.77,10.665 187.012,9.362 187.012,9.362 C187.012,9.362 187.103,10.847 187.103,12.302 L187.103,19.999 L183.83,19.999 L183.83,3.816 z M201.89,3.816 L212.316,3.816 L212.316,6.907 L205.406,6.907 L205.406,10.332 L211.346,10.332 L211.346,13.362 L205.406,13.362 L205.406,16.908 L212.406,16.908 L212.406,19.999 L201.89,19.999 L201.89,3.816 z M222.103,14.211 C221.042,13.15 218.194,13.696 216.254,11.756 C215.436,10.938 215.042,9.786 215.042,8.574 C215.042,5.756 217.406,3.513 221.254,3.513 C222.679,3.513 224.133,3.877 225.376,4.483 L224.103,7.453 C223.255,6.998 222.133,6.665 221.073,6.665 C219.466,6.665 218.769,7.453 218.769,8.362 C218.769,8.847 218.921,9.21 219.194,9.483 C220.224,10.514 223.194,10.059 225.043,11.908 C225.861,12.726 226.285,13.908 226.285,15.181 C226.285,18.03 223.952,20.303 220.073,20.303 C218.284,20.303 216.436,19.727 215.042,18.848 L216.375,15.787 C217.375,16.484 218.769,17.12 220.254,17.12 C221.861,17.12 222.527,16.302 222.527,15.363 C222.527,14.878 222.376,14.484 222.103,14.211 z M235.103,14.211 C234.043,13.15 231.194,13.696 229.254,11.756 C228.436,10.938 228.042,9.786 228.042,8.574 C228.042,5.756 230.406,3.513 234.255,3.513 C235.679,3.513 237.134,3.877 238.377,4.483 L237.104,7.453 C236.255,6.998 235.134,6.665 234.073,6.665 C232.467,6.665 231.77,7.453 231.77,8.362 C231.77,8.847 231.921,9.21 232.194,9.483 C233.224,10.514 236.194,10.059 238.043,11.908 C238.861,12.726 239.285,13.908 239.285,15.181 C239.285,18.03 236.952,20.303 233.073,20.303 C231.285,20.303 229.436,19.727 228.042,18.848 L229.375,15.787 C230.376,16.484 231.77,17.12 233.254,17.12 C234.861,17.12 235.527,16.302 235.527,15.363 C235.527,14.878 235.376,14.484 235.103,14.211 z M246.8,11.968 C246.8,7.301 250.346,3.513 255.013,3.513 C257.256,3.513 259.195,4.392 260.529,5.877 L258.255,8.241 C257.316,7.362 256.255,6.877 254.952,6.877 C252.437,6.877 250.679,9.089 250.679,11.877 C250.679,14.696 252.346,16.939 255.073,16.939 C256.467,16.939 257.589,16.454 258.528,15.454 L260.71,17.696 C259.226,19.393 257.286,20.303 254.77,20.303 C250.103,20.303 246.8,16.726 246.8,11.968 z M261.891,11.999 C261.891,7.331 265.528,3.513 270.346,3.513 C275.256,3.513 278.681,7.089 278.681,11.817 C278.681,16.484 275.044,20.303 270.225,20.303 C265.316,20.303 261.891,16.726 261.891,11.999 z M274.862,11.908 C274.862,9.029 273.074,6.816 270.286,6.816 C267.437,6.816 265.71,9.18 265.71,11.908 C265.71,14.787 267.498,16.999 270.286,16.999 C273.135,16.999 274.862,14.635 274.862,11.908 z M281.982,3.816 L285.346,3.816 L290.589,11.514 C291.438,12.786 292.195,14.09 292.195,14.09 C292.195,14.09 292.105,12.605 292.105,11.15 L292.105,3.816 L295.378,3.816 L295.378,19.999 L292.256,19.999 L286.77,11.938 C285.922,10.665 285.164,9.362 285.164,9.362 C285.164,9.362 285.255,10.847 285.255,12.302 L285.255,19.999 L281.983,19.999 L281.983,3.816 z M305.619,14.211 C304.558,13.15 301.71,13.696 299.77,11.756 C298.952,10.938 298.558,9.786 298.558,8.574 C298.558,5.756 300.922,3.513 304.77,3.513 C306.194,3.513 307.649,3.877 308.892,4.483 L307.618,7.453 C306.77,6.998 305.649,6.665 304.588,6.665 C302.982,6.665 302.285,7.453 302.285,8.362 C302.285,8.847 302.436,9.21 302.709,9.483 C303.739,10.514 306.71,10.059 308.558,11.908 C309.376,12.726 309.801,13.908 309.801,15.181 C309.801,18.03 307.467,20.303 303.588,20.303 C301.801,20.303 299.952,19.727 298.558,18.848 L299.891,15.787 C300.892,16.484 302.285,17.12 303.77,17.12 C305.376,17.12 306.043,16.302 306.043,15.363 C306.043,14.878 305.891,14.484 305.619,14.211 z M326.286,13.544 C326.286,17.454 323.65,20.303 319.589,20.303 C315.528,20.303 312.921,17.545 312.921,13.605 L312.921,3.816 L316.437,3.816 L316.437,13.453 C316.437,15.635 317.558,17.029 319.589,17.029 C321.619,17.029 322.771,15.635 322.771,13.453 L322.771,3.816 L326.286,3.816 L326.286,13.544 z M340.831,19.999 L330.83,19.999 L330.83,3.816 L334.406,3.816 L334.406,16.848 L340.831,16.848 L340.831,19.999 z M344.679,6.968 L340.164,6.968 L340.164,3.816 L352.771,3.816 L352.771,6.968 L348.255,6.968 L348.255,19.999 L344.679,19.999 L344.679,6.968 z M359.073,19.999 L355.497,19.999 L355.497,3.816 L359.073,3.816 L359.073,19.999 z M363.739,3.816 L367.103,3.816 L372.346,11.514 C373.195,12.786 373.952,14.09 373.952,14.09 C373.952,14.09 373.861,12.605 373.861,11.15 L373.861,3.816 L377.134,3.816 L377.134,19.999 L374.013,19.999 L368.527,11.938 C367.679,10.665 366.921,9.362 366.921,9.362 C366.921,9.362 367.012,10.847 367.012,12.302 L367.012,19.999 L363.739,19.999 L363.739,3.816 z M388.498,10.817 L394.71,10.817 L394.71,18.211 C393.104,19.514 391.073,20.303 388.709,20.303 C383.861,20.303 380.436,16.848 380.436,11.968 C380.436,7.301 384.073,3.513 388.77,3.513 C391.012,3.513 392.982,4.301 394.377,5.695 L392.195,8.119 C391.316,7.301 390.073,6.756 388.739,6.756 C385.982,6.756 384.255,9.15 384.255,11.877 C384.255,14.756 386.043,17.06 388.77,17.06 C389.679,17.06 390.437,16.938 391.225,16.514 L391.225,13.847 L388.498,13.847 L388.498,10.817 z M235.899,32.54 L235.899,32.511 C235.899,29.626 238.06,27.262 241.12,27.262 C243.005,27.262 244.136,27.914 245.107,28.842 L243.962,30.162 C243.135,29.408 242.279,28.915 241.105,28.915 C239.191,28.915 237.77,30.496 237.77,32.482 L237.77,32.511 C237.77,34.498 239.176,36.108 241.12,36.108 C242.367,36.108 243.164,35.615 244.034,34.803 L245.18,35.963 C244.121,37.065 242.961,37.761 241.061,37.761 C238.089,37.761 235.899,35.455 235.899,32.54 z M246.077,33.802 L246.077,33.773 C246.077,31.583 247.817,29.77 250.167,29.77 C252.516,29.77 254.242,31.554 254.242,33.744 L254.242,33.773 C254.242,35.948 252.501,37.761 250.137,37.761 C247.803,37.761 246.077,35.977 246.077,33.802 z M252.487,33.802 L252.487,33.773 C252.487,32.425 251.515,31.308 250.137,31.308 C248.731,31.308 247.832,32.41 247.832,33.744 L247.832,33.773 C247.832,35.107 248.803,36.224 250.167,36.224 C251.588,36.224 252.487,35.122 252.487,33.802 z M255.791,29.93 L257.561,29.93 L257.561,31.09 C258.054,30.409 258.721,29.77 259.895,29.77 C260.998,29.77 261.78,30.307 262.187,31.119 C262.796,30.307 263.608,29.77 264.768,29.77 C266.436,29.77 267.451,30.829 267.451,32.7 L267.451,37.587 L265.696,37.587 L265.696,33.237 C265.696,32.018 265.13,31.366 264.144,31.366 C263.187,31.366 262.506,32.033 262.506,33.266 L262.506,37.587 L260.751,37.587 L260.751,33.222 C260.751,32.033 260.171,31.366 259.199,31.366 C258.228,31.366 257.561,32.091 257.561,33.266 L257.561,37.587 L255.792,37.587 L255.792,29.93 z M269.333,29.93 L271.103,29.93 L271.103,31.09 C271.596,30.409 272.263,29.77 273.438,29.77 C274.54,29.77 275.323,30.307 275.729,31.119 C276.338,30.307 277.15,29.77 278.31,29.77 C279.978,29.77 280.993,30.829 280.993,32.7 L280.993,37.587 L279.238,37.587 L279.238,33.237 C279.238,32.018 278.673,31.366 277.686,31.366 C276.729,31.366 276.048,32.033 276.048,33.266 L276.048,37.587 L274.293,37.587 L274.293,33.222 C274.293,32.033 273.713,31.366 272.741,31.366 C271.77,31.366 271.103,32.091 271.103,33.266 L271.103,37.587 L269.334,37.587 L269.334,29.93 z M282.47,33.787 L282.47,33.759 C282.47,31.569 284.021,29.77 286.211,29.77 C288.647,29.77 289.88,31.685 289.88,33.889 C289.88,34.049 289.866,34.208 289.851,34.382 L284.225,34.382 C284.413,35.629 285.297,36.325 286.429,36.325 C287.284,36.325 287.893,36.006 288.502,35.412 L289.532,36.325 C288.807,37.195 287.806,37.761 286.4,37.761 C284.181,37.761 282.47,36.151 282.47,33.787 z M288.14,33.222 C288.024,32.091 287.357,31.206 286.197,31.206 C285.123,31.206 284.369,32.033 284.21,33.222 L288.14,33.222 z M291.415,29.93 L293.185,29.93 L293.185,31.656 C293.663,30.51 294.548,29.727 295.897,29.785 L295.897,31.641 L295.795,31.641 C294.258,31.641 293.185,32.642 293.185,34.672 L293.185,37.587 L291.415,37.587 L291.415,29.93 z M296.707,36.383 L301.131,31.366 L296.867,31.366 L296.867,29.93 L303.363,29.93 L303.363,31.134 L298.941,36.151 L303.363,36.151 L303.363,37.587 L296.707,37.587 L296.707,36.383 z M306.712,36.398 L306.712,37.587 L304.942,37.587 L304.942,27.001 L306.712,27.001 L306.712,31.206 C307.277,30.409 308.075,29.77 309.322,29.77 C311.12,29.77 312.875,31.192 312.875,33.744 L312.875,33.773 C312.875,36.311 311.135,37.747 309.322,37.747 C308.046,37.747 307.248,37.109 306.712,36.398 z M311.091,33.773 L311.091,33.744 C311.091,32.265 310.076,31.293 308.901,31.293 C307.712,31.293 306.668,32.28 306.668,33.744 L306.668,33.773 C306.668,35.238 307.712,36.224 308.901,36.224 C310.105,36.224 311.091,35.281 311.091,33.773 z M313.946,35.383 L313.946,35.354 C313.946,33.701 315.251,32.889 317.122,32.889 C317.978,32.889 318.587,33.019 319.181,33.208 L319.181,33.019 C319.181,31.931 318.514,31.351 317.282,31.351 C316.426,31.351 315.788,31.54 315.092,31.83 L314.613,30.452 C315.469,30.075 316.295,29.829 317.513,29.829 C318.659,29.829 319.515,30.133 320.051,30.684 C320.617,31.235 320.878,32.047 320.878,33.048 L320.878,37.587 L319.167,37.587 L319.167,36.63 C318.645,37.254 317.847,37.746 316.673,37.746 C315.237,37.747 313.946,36.92 313.946,35.383 z M319.211,34.832 L319.211,34.31 C318.761,34.136 318.166,34.005 317.47,34.005 C316.339,34.005 315.672,34.484 315.672,35.281 L315.672,35.31 C315.672,36.05 316.324,36.47 317.165,36.47 C318.326,36.47 319.211,35.803 319.211,34.832 z M322.747,29.93 L324.516,29.93 L324.516,31.105 C325.009,30.394 325.72,29.77 326.909,29.77 C328.635,29.77 329.635,30.931 329.635,32.7 L329.635,37.587 L327.88,37.587 L327.88,33.237 C327.88,32.047 327.286,31.366 326.242,31.366 C325.227,31.366 324.516,32.076 324.516,33.266 L324.516,37.587 L322.747,37.587 L322.747,29.93 z M331.519,27.001 L333.288,27.001 L333.288,33.323 L336.464,29.93 L338.596,29.93 L335.551,33.048 L338.697,37.587 L336.638,37.587 L334.376,34.266 L333.288,35.397 L333.288,37.587 L331.519,37.587 L331.519,27.001 z M342.814,32.54 L342.814,32.511 C342.814,29.669 344.989,27.262 348.049,27.262 C349.818,27.262 350.905,27.755 351.949,28.639 L350.819,29.988 C350.035,29.336 349.267,28.915 347.976,28.915 C346.105,28.915 344.684,30.539 344.684,32.482 L344.684,32.511 C344.684,34.6 346.062,36.137 348.135,36.137 C349.093,36.137 349.963,35.832 350.586,35.368 L350.586,33.483 L347.99,33.483 L347.99,31.917 L352.312,31.917 L352.312,36.18 C351.311,37.036 349.876,37.761 348.078,37.761 C344.902,37.761 342.814,35.499 342.814,32.54 z M354.195,29.93 L355.965,29.93 L355.965,31.656 C356.443,30.51 357.328,29.727 358.676,29.785 L358.676,31.641 L358.575,31.641 C357.038,31.641 355.965,32.642 355.965,34.672 L355.965,37.587 L354.195,37.587 L354.195,29.93 z M359.893,34.803 L359.893,29.93 L361.648,29.93 L361.648,34.281 C361.648,35.47 362.242,36.137 363.287,36.137 C364.302,36.137 365.012,35.441 365.012,34.251 L365.012,29.93 L366.782,29.93 L366.782,37.587 L365.012,37.587 L365.012,36.398 C364.519,37.123 363.809,37.747 362.619,37.747 C360.894,37.747 359.893,36.587 359.893,34.803 z M368.738,29.93 L370.507,29.93 L370.507,31.206 C371.072,30.409 371.87,29.77 373.117,29.77 C374.916,29.77 376.67,31.192 376.67,33.744 L376.67,33.773 C376.67,36.311 374.93,37.747 373.117,37.747 C371.841,37.747 371.043,37.109 370.507,36.398 L370.507,39.907 L368.738,39.907 L368.738,29.93 z M374.887,33.773 L374.887,33.744 C374.887,32.265 373.871,31.293 372.697,31.293 C371.508,31.293 370.463,32.28 370.463,33.744 L370.463,33.773 C370.463,35.238 371.508,36.224 372.697,36.224 C373.9,36.224 374.887,35.281 374.887,33.773 z M378.249,29.93 L380.018,29.93 L380.018,31.206 C380.584,30.409 381.381,29.77 382.628,29.77 C384.427,29.77 386.181,31.192 386.181,33.744 L386.181,33.773 C386.181,36.311 384.441,37.747 382.628,37.747 C381.352,37.747 380.555,37.109 380.018,36.398 L380.018,39.907 L378.249,39.907 L378.249,29.93 z M384.398,33.773 L384.398,33.744 C384.398,32.265 383.383,31.293 382.208,31.293 C381.019,31.293 379.975,32.28 379.975,33.744 L379.975,33.773 C379.975,35.238 381.019,36.224 382.208,36.224 C383.412,36.224 384.398,35.281 384.398,33.773 z M387.354,33.787 L387.354,33.759 C387.354,31.569 388.906,29.77 391.096,29.77 C393.532,29.77 394.765,31.685 394.765,33.889 C394.765,34.049 394.75,34.208 394.736,34.382 L389.109,34.382 C389.298,35.629 390.182,36.325 391.313,36.325 C392.169,36.325 392.778,36.006 393.387,35.412 L394.417,36.325 C393.691,37.195 392.691,37.761 391.284,37.761 C389.065,37.761 387.354,36.151 387.354,33.787 z M393.024,33.222 C392.908,32.091 392.241,31.206 391.081,31.206 C390.008,31.206 389.254,32.033 389.095,33.222 L393.024,33.222 z" fill="#FFFFFF"/>
  </g>
  <g id="Ribbon_Gradients">
    <path d="M435.39,-0 L434.98,-0 L434.12,-0 L434.12,-0 L418.304,-0 C418.289,-0 418.276,0.008 418.269,0.019 L406.005,21.263 C405.998,21.275 405.998,21.29 406.005,21.303 L414.723,36.404 C414.69,36.3 414.632,36.184 414.632,36.184 C414.448,35.841 414.311,35.576 414.237,35.409 C413.88,34.592 413.674,33.464 413.731,32.363 C413.875,29.469 415.323,26.612 416.094,25.275 C417.913,22.13 421.421,16.052 421.421,16.052 C421.421,16.052 424.931,9.973 426.744,6.828 C427.193,6.049 427.958,4.79 428.999,3.564 L429.033,3.602 C429.033,3.602 429.07,3.559 429.072,3.557 C429.819,2.677 430.709,1.813 431.722,1.158 C432.65,0.559 433.732,0.173 434.619,0.075 C434.913,0.043 435.383,-0 435.383,-0" fill="url(#Gradient_1)"/>
    <path d="M450.209,24.364 C449.802,25.048 449.483,25.557 449.312,25.794 C448.786,26.512 447.909,27.259 446.93,27.76 C444.346,29.083 441.106,29.176 439.56,29.176 C435.928,29.176 428.999,29.176 428.999,29.176 C428.999,29.176 421.981,29.176 418.348,29.176 C416.804,29.176 413.65,29.083 411.071,27.76 C410.092,27.259 409.214,26.512 408.688,25.794 C408.514,25.557 408.29,25.26 408.29,25.26 L416.787,39.98 C416.795,39.992 416.808,40 416.822,40 L441.173,40 C441.187,40 441.2,39.992 441.207,39.98 L450.259,24.307 C450.259,24.307 450.24,24.312 450.209,24.364 z" fill="url(#Gradient_2)"/>
    <path d="M439.693,-0 L435.315,-0 C435.315,-0 434.845,0.043 434.552,0.075 C433.664,0.173 432.582,0.559 431.655,1.158 C430.639,1.815 429.747,2.682 428.999,3.564 C430.039,4.79 430.807,6.049 431.252,6.828 C433.067,9.973 436.581,16.052 436.581,16.052 C436.581,16.052 440.087,22.13 441.904,25.275 C442.676,26.612 444.126,29.469 444.268,32.363 C444.318,33.362 444.153,34.383 443.856,35.174 L443.598,35.84 L451.995,21.301 C452.002,21.289 452.002,21.274 451.995,21.261 L439.728,0.019 C439.721,0.008 439.707,-0 439.693,-0 z" fill="url(#Gradient_3)"/>
  </g>
</svg>
